<svg width="79" height="79" viewBox="0 0 79 79" fill="none" xmlns="http://www.w3.org/2000/svg">
<path d="M62.6532 39.2871C62.6532 51.9564 52.3824 62.2274 39.7129 62.2274C27.0432 62.2274 16.7725 51.9564 16.7725 39.2871C16.7725 26.6177 27.0432 16.3469 39.7129 16.3469C52.3824 16.3469 62.6532 26.6177 62.6532 39.2871Z" fill="#3C3C3C"/>
<path d="M56.6573 49.4083C58.4287 46.4488 59.448 42.9873 59.448 39.2872C59.448 28.3879 50.6123 19.5522 39.7129 19.5522C28.8133 19.5522 19.9777 28.3879 19.9777 39.2872C19.9777 42.9873 20.997 46.4488 22.7685 49.4083H56.6573Z" fill="white"/>
<path d="M28.0324 51.2054H28.7968V53.9849H30.5289V54.6796H28.0324V51.2054Z" fill="white"/>
<path d="M33.0998 53.2254L32.6381 52.0988L32.1766 53.2254H33.0998ZM32.2956 51.1805H33.0005L34.4894 54.6796H33.6905L33.3727 53.9003H31.9036L31.586 54.6796H30.8067L32.2956 51.1805Z" fill="white"/>
<path d="M34.648 52.9526V52.9425C34.648 51.9549 35.3924 51.1458 36.4596 51.1458C37.1148 51.1458 37.5068 51.3642 37.8296 51.6818L37.3431 52.2427C37.0752 51.9994 36.8022 51.8507 36.4547 51.8507C35.869 51.8507 35.4471 52.337 35.4471 52.9326V52.9425C35.4471 53.538 35.8591 54.0344 36.4547 54.0344C36.8519 54.0344 37.095 53.8756 37.368 53.6275L37.8543 54.1187C37.4969 54.5011 37.0999 54.7393 36.4299 54.7393C35.4075 54.7393 34.648 53.9501 34.648 52.9526Z" fill="white"/>
<path d="M39.2735 51.9101H38.2164V51.2054H41.0951V51.9101H40.038V54.6796H39.2735V51.9101Z" fill="white"/>
<path d="M44.2715 52.9526V52.9425C44.2715 52.3469 43.8347 51.8507 43.2194 51.8507C42.6038 51.8507 42.1769 52.337 42.1769 52.9326V52.9425C42.1769 53.538 42.6137 54.0344 43.2291 54.0344C43.8446 54.0344 44.2715 53.5481 44.2715 52.9526ZM41.3778 52.9526V52.9425C41.3778 51.9549 42.1571 51.1458 43.2291 51.1458C44.3012 51.1458 45.0706 51.945 45.0706 52.9326V52.9425C45.0706 53.9303 44.2913 54.7393 43.2194 54.7393C42.1472 54.7393 41.3778 53.9402 41.3778 52.9526Z" fill="white"/>
<path d="M45.4872 54.1734L45.939 53.6325C46.2517 53.8905 46.5792 54.0544 46.9763 54.0544C47.289 54.0544 47.4777 53.9303 47.4777 53.7267V53.7168C47.4777 53.5232 47.3585 53.424 46.7777 53.2751C46.078 53.0965 45.6262 52.9029 45.6262 52.2129V52.203C45.6262 51.5727 46.1325 51.1558 46.8423 51.1558C47.3486 51.1558 47.7804 51.3146 48.1328 51.5975L47.7356 52.1733C47.428 51.9598 47.1252 51.8307 46.8324 51.8307C46.5396 51.8307 46.3855 51.9648 46.3855 52.1335V52.1434C46.3855 52.3718 46.5346 52.4463 47.1351 52.6001C47.84 52.7837 48.237 53.0369 48.237 53.6424V53.6523C48.237 54.3423 47.7109 54.7294 46.9615 54.7294C46.4352 54.7294 45.9042 54.5456 45.4872 54.1734Z" fill="white"/>
<path d="M48.9018 51.2054H51.5225V51.8853H49.6611V52.59H51.2991V53.2701H49.6611V53.9997H51.5472V54.6796H48.9018V51.2054Z" fill="white"/>
<path d="M33.3826 56.1684H36.028V56.8634H34.1468V57.6029H35.8047V58.2976H34.1468V59.6428H33.3826V56.1684Z" fill="white"/>
<path d="M38.1768 57.8559C38.5491 57.8559 38.7625 57.6575 38.7625 57.3647V57.3546C38.7625 57.0271 38.5342 56.8584 38.162 56.8584H37.4025V57.8559H38.1768ZM36.6382 56.1684H38.2265C38.6683 56.1684 39.0108 56.2926 39.2391 56.5208C39.4325 56.7143 39.5369 56.9873 39.5369 57.315V57.3249C39.5369 57.8858 39.2341 58.238 38.7924 58.402L39.641 59.6428H38.7477L38.0032 58.5309H37.4025V59.6428H36.6382V56.1684Z" fill="white"/>
<path d="M40.2265 56.1684H42.8471V56.8485H40.9858V57.5532H42.6238V58.2331H40.9858V58.9627H42.8719V59.6428H40.2265V56.1684Z" fill="white"/>
<path d="M43.5516 56.1684H46.1723V56.8485H44.3111V57.5532H45.9489V58.2331H44.3111V58.9627H46.1972V59.6428H43.5516V56.1684Z" fill="white"/>
<path d="M23.6557 52.0982L21.3564 49.4611L53.0599 21.8183L55.359 24.4552L23.6557 52.0982Z" fill="#3C3C3C"/>
<path d="M38.1295 48.979C35.341 48.979 33.0723 46.7108 33.0723 43.9222V36.6459L33.0707 36.5825C33.0446 35.5599 33.0086 34.1581 33.4095 32.4302L33.4234 32.3688L35.103 26.6151C34.7456 26.1526 34.5413 25.5758 34.5413 24.9606C34.5413 23.4692 35.7546 22.2556 37.2461 22.2556H42.1676C43.6591 22.2556 44.8724 23.4692 44.8724 24.9606C44.8724 25.5756 44.6685 26.1522 44.3113 26.6143L45.9903 32.3659L46.0054 32.4304C46.4265 34.2472 46.3813 35.6575 46.3514 36.5907L46.3509 36.6087C46.3477 36.7122 46.3445 36.8102 46.3423 36.9027V43.9222C46.3423 46.7108 44.0737 48.979 41.2852 48.979H38.1295Z" fill="white"/>
<path d="M34.8371 32.7614L34.8422 32.7386L34.8487 32.7163L36.7125 26.3309C36.7311 26.2559 36.7556 26.1826 36.7849 26.1114C36.3289 25.9282 36.0068 25.4821 36.0068 24.9606C36.0068 24.2761 36.5616 23.7212 37.2461 23.7212H42.1676C42.8523 23.7212 43.4071 24.2761 43.4071 24.9606C43.4071 25.4819 43.0853 25.9278 42.6295 26.111C42.659 26.1822 42.6834 26.2557 42.702 26.3309L44.5659 32.7163L44.5725 32.7386L44.5776 32.7614C44.9554 34.3907 44.916 35.6351 44.8867 36.5439C44.8829 36.6651 44.8792 36.7795 44.877 36.8864V43.9222C44.877 45.9023 43.2657 47.5136 41.2852 47.5136H38.1295C36.149 47.5136 34.5379 45.9023 34.5379 43.9222V36.6275L34.5359 36.5461C34.5102 35.5486 34.4785 34.307 34.8371 32.7614Z" fill="#3C3C3C"/>
<path d="M35.3554 35.2975C35.3794 35.306 35.4037 35.3128 35.4275 35.3209C35.5069 35.3478 36.0034 35.4836 36.0187 35.487C36.1062 35.5066 37.0293 35.7068 37.8486 35.5613C39.2585 35.311 40.4936 34.5159 41.7502 33.8864C42.7105 33.4053 43.4807 33.4483 43.4807 33.4483C43.5722 33.4516 43.8413 33.4938 43.8838 33.5041C44.1499 34.9661 44.065 36.0729 44.0482 36.8726V43.9222C44.0482 45.4479 42.8109 46.6848 41.2852 46.6848H38.1295C36.6036 46.6848 35.3665 45.4479 35.3665 43.9222V36.6182C35.3566 36.218 35.3435 35.7799 35.3554 35.2975Z" fill="white"/>
</svg>
