<svg width="105" height="26" viewBox="0 0 105 26" fill="none" xmlns="http://www.w3.org/2000/svg">
<path d="M17.6181 0.999969C8.4546 0.999969 1 6.16614 1 12.5162C1 18.8663 8.4546 24.0322 17.6181 24.0322C26.2857 24.0322 33.4205 19.4095 34.1676 13.5352L46.1282 13.5352V15.9576L103.29 15.9576V9.07543L46.1279 9.07543V11.4976L34.1673 11.4976C33.4202 5.623 26.2857 0.999969 17.6181 0.999969ZM48.3352 11.1127L101.083 11.1127V13.9195L48.3352 13.9195V11.1127ZM32.0292 12.5162C32.0292 17.7424 25.5641 21.9941 17.6178 21.9941C9.67153 21.9941 3.20643 17.7424 3.20643 12.5162C3.20643 7.28978 9.67153 3.0378 17.6178 3.0378C25.5641 3.0378 32.0292 7.28978 32.0292 12.5162Z" fill="#E79800"/>
<path d="M34.5966 14.0352L45.6282 14.0352V15.9576V16.4576H46.1282L103.29 16.4576H103.79V15.9576V9.07543V8.57543H103.29L46.1279 8.57543H45.6279V9.07543V10.9976L34.5963 10.9976C34.0679 8.05347 32.0346 5.47757 29.1319 3.62438C26.0829 1.67776 22.037 0.499969 17.6181 0.499969C12.9471 0.499969 8.69041 1.81584 5.58794 3.96585C2.48767 6.11435 0.5 9.13047 0.5 12.5162C0.5 15.902 2.48767 18.9181 5.58795 21.0665C8.69042 23.2164 12.9471 24.5322 17.6181 24.5322C22.037 24.5322 26.083 23.3545 29.1321 21.408C32.0348 19.5549 34.0682 16.9792 34.5966 14.0352ZM48.8352 11.6127L100.583 11.6127V13.4195L48.8352 13.4195V11.6127ZM31.5292 12.5162C31.5292 14.9064 30.0503 17.1388 27.5286 18.7972C25.0114 20.4527 21.507 21.4941 17.6178 21.4941C13.7286 21.4941 10.2242 20.4527 7.707 18.7972C5.18532 17.1388 3.70643 14.9064 3.70643 12.5162C3.70643 10.1259 5.18534 7.89334 7.70702 6.23484C10.2242 4.57928 13.7286 3.5378 17.6178 3.5378C21.507 3.5378 25.0114 4.57928 27.5286 6.23484C30.0503 7.89334 31.5292 10.1259 31.5292 12.5162Z" stroke="white" stroke-opacity="0.8"/>
</svg>
