<svg width="105" height="26" viewBox="0 0 105 26" fill="none" xmlns="http://www.w3.org/2000/svg">
<path d="M86.6722 24.0323C95.8357 24.0323 103.29 18.8661 103.29 12.516C103.29 6.1659 95.8357 1 86.6722 1C78.0047 1 70.8698 5.62276 70.1227 11.4971L58.1621 11.4971V9.0746L1 9.0746V15.9568L58.1624 15.9568V13.5346L70.1231 13.5346C70.8701 19.4092 78.0047 24.0323 86.6722 24.0323ZM55.9551 13.9195L3.20765 13.9195V11.1127L55.9551 11.1127V13.9195ZM72.2611 12.516C72.2611 7.28981 78.7262 3.03811 86.6725 3.03811C94.6188 3.03811 101.084 7.28981 101.084 12.516C101.084 17.7425 94.6188 21.9944 86.6725 21.9944C78.7262 21.9944 72.2611 17.7425 72.2611 12.516Z" fill="#E79800"/>
<path d="M69.6937 10.9971L58.6621 10.9971V9.0746V8.5746H58.1621L1 8.5746H0.5V9.0746V15.9568V16.4568H1L58.1624 16.4568H58.6624V15.9568V14.0346L69.694 14.0346C70.2224 16.9788 72.2557 19.5547 75.1584 21.4078C78.2074 23.3545 82.2533 24.5323 86.6722 24.5323C91.3432 24.5323 95.5999 23.2164 98.7024 21.0664C101.803 18.9179 103.79 15.9018 103.79 12.516C103.79 9.13022 101.803 6.11417 98.7024 3.96574C95.5999 1.8158 91.3432 0.5 86.6722 0.5C82.2533 0.5 78.2073 1.67772 75.1582 3.62422C72.2555 5.4773 70.2221 8.05306 69.6937 10.9971ZM55.4551 13.4195L3.70765 13.4195V11.6127L55.4551 11.6127V13.4195ZM72.7611 12.516C72.7611 10.1258 74.24 7.89339 76.7617 6.23499C79.2789 4.57952 82.7833 3.53811 86.6725 3.53811C90.5617 3.53811 94.0661 4.57952 96.5833 6.23499C99.105 7.89339 100.584 10.1258 100.584 12.516C100.584 14.9063 99.105 17.1389 96.5833 18.7974C94.0661 20.453 90.5617 21.4944 86.6725 21.4944C82.7833 21.4944 79.2789 20.453 76.7617 18.7974C74.24 17.1389 72.7611 14.9063 72.7611 12.516Z" stroke="white" stroke-opacity="0.8"/>
</svg>
