<svg width="320" height="51" viewBox="0 0 320 51" fill="none" xmlns="http://www.w3.org/2000/svg">
<path d="M20.7422 27.5078C19.9688 27.3906 19.1367 27.1094 18.2461 26.6641C17.3555 26.1953 16.4297 25.6445 15.4688 25.0117C14.5078 24.3555 13.5117 23.6523 12.4805 22.9023C11.4492 22.1289 10.418 21.3672 9.38672 20.6172C8.35547 19.8672 7.32422 19.1641 6.29297 18.5078C5.28516 17.8281 4.30078 17.2773 3.33984 16.8555C3.15234 17.8633 3.02344 18.7773 2.95312 19.5977C2.88281 20.418 2.84766 21.2266 2.84766 22.0234C2.84766 22.7969 2.87109 23.5938 2.91797 24.4141C2.96484 25.2344 3.01172 26.1484 3.05859 27.1562C3.12891 27.5078 3.07031 27.707 2.88281 27.7539C2.69531 27.8008 2.47266 27.7773 2.21484 27.6836C1.98047 27.5664 1.74609 27.4258 1.51172 27.2617C1.30078 27.0742 1.17188 26.9453 1.125 26.875V26.0664C1.21875 24.6367 1.30078 23.3828 1.37109 22.3047C1.46484 21.2266 1.53516 20.1836 1.58203 19.1758C1.65234 18.168 1.69922 17.1367 1.72266 16.082C1.74609 15.0273 1.73438 13.8086 1.6875 12.4258C1.6875 12.2617 1.67578 11.957 1.65234 11.5117C1.62891 11.043 1.59375 10.5508 1.54688 10.0352C1.52344 9.49609 1.5 8.98047 1.47656 8.48828C1.45312 7.99609 1.42969 7.64453 1.40625 7.43359C1.40625 7.38672 1.37109 7.19922 1.30078 6.87109C1.23047 6.51953 1.16016 6.10938 1.08984 5.64062C1.01953 5.14844 0.949219 4.64453 0.878906 4.12891C0.832031 3.61328 0.832031 3.15625 0.878906 2.75781C0.925781 2.33594 1.03125 2.01953 1.19531 1.80859C1.35938 1.57422 1.61719 1.51562 1.96875 1.63281C2.20312 1.82031 2.39062 2.20703 2.53125 2.79297C2.69531 3.37891 2.82422 4.07031 2.91797 4.86719C3.01172 5.64062 3.08203 6.47266 3.12891 7.36328C3.17578 8.25391 3.21094 9.12109 3.23438 9.96484C3.25781 10.8086 3.26953 11.582 3.26953 12.2852C3.29297 12.9648 3.31641 13.4805 3.33984 13.832C3.64453 13.9258 4.03125 13.9023 4.5 13.7617C4.99219 13.6211 5.47266 13.4336 5.94141 13.1992C6.43359 12.9648 6.89062 12.7188 7.3125 12.4609C7.75781 12.2031 8.10938 12.0039 8.36719 11.8633C9.51562 11.1602 10.6406 10.4688 11.7422 9.78906C12.8672 9.08594 13.875 8.32422 14.7656 7.50391C15.6797 6.66016 16.4531 5.72266 17.0859 4.69141C17.7188 3.66016 18.1289 2.45313 18.3164 1.07031C18.3164 1.02344 18.3516 0.964844 18.4219 0.894531C18.4922 0.824219 18.5508 0.789062 18.5977 0.789062C18.7148 0.765625 18.9375 0.753906 19.2656 0.753906C19.6172 0.753906 19.8516 0.765625 19.9688 0.789062C20.5547 1.375 20.7539 2.05469 20.5664 2.82812C20.4023 3.60156 19.9922 4.41016 19.3359 5.25391C18.7031 6.07422 17.9062 6.90625 16.9453 7.75C16.0078 8.59375 15.0586 9.37891 14.0977 10.1055C13.1602 10.8086 12.2812 11.418 11.4609 11.9336C10.6641 12.4492 10.0898 12.8008 9.73828 12.9883C9.57422 13.0586 9.28125 13.1992 8.85938 13.4102C8.4375 13.6211 7.99219 13.8438 7.52344 14.0781C7.05469 14.3125 6.60938 14.5352 6.1875 14.7461C5.76562 14.957 5.47266 15.1094 5.30859 15.2031L4.88672 15.625C7.81641 17.6875 10.3945 19.4805 12.6211 21.0039C14.8711 22.5273 16.9219 23.6523 18.7734 24.3789C20.6484 25.1055 22.3945 25.3516 24.0117 25.1172C25.6523 24.8594 27.3281 23.9922 29.0391 22.5156C29.4141 22.7031 29.5547 22.9727 29.4609 23.3242C29.3672 23.6523 29.1211 24.0273 28.7227 24.4492C28.3242 24.8477 27.7969 25.2461 27.1406 25.6445C26.5078 26.043 25.8164 26.4062 25.0664 26.7344C24.3398 27.0391 23.5898 27.2734 22.8164 27.4375C22.0664 27.5781 21.375 27.6016 20.7422 27.5078ZM35.7877 27.7188C34.897 27.3438 34.2173 26.8633 33.7486 26.2773C33.3033 25.6914 32.9752 25.0469 32.7642 24.3438C32.5533 23.6406 32.4244 22.8906 32.3775 22.0938C32.3306 21.2969 32.272 20.4883 32.2017 19.668C31.6627 19.7617 31.1353 19.8086 30.6197 19.8086C30.1041 19.7852 29.647 19.7383 29.2486 19.668C28.8736 19.5742 28.6041 19.457 28.44 19.3164C28.2759 19.1523 28.2525 18.9883 28.3697 18.8242C28.5103 18.6367 28.8384 18.4492 29.3541 18.2617C29.8697 18.0742 30.6314 17.8984 31.6392 17.7344C31.7798 17.7344 31.9791 17.6641 32.2369 17.5234C32.5181 17.3828 32.6822 17.2773 32.7291 17.207C32.8931 16.9727 33.0455 16.5742 33.1861 16.0117C33.3267 15.4258 33.4673 14.7812 33.608 14.0781C33.772 13.375 33.9595 12.6719 34.1705 11.9688C34.4048 11.2422 34.6861 10.6211 35.0142 10.1055C35.3658 9.58984 35.7759 9.22656 36.2447 9.01562C36.7369 8.80469 37.3345 8.85156 38.0377 9.15625C38.108 9.20313 38.2017 9.29688 38.3189 9.4375C38.4595 9.55469 38.6002 9.68359 38.7408 9.82422C38.8814 9.96484 39.0103 10.1055 39.1275 10.2461C39.2681 10.3633 39.3619 10.457 39.4088 10.5273C39.5025 11.6758 39.4322 12.6484 39.1978 13.4453C38.9634 14.2422 38.647 14.9219 38.2486 15.4844C37.8502 16.0234 37.4048 16.4805 36.9127 16.8555C36.4205 17.2305 35.9517 17.5938 35.5064 17.9453C35.0611 18.2734 34.6744 18.6133 34.3463 18.9648C34.0416 19.3164 33.8775 19.75 33.8541 20.2656C33.8072 20.875 33.7838 21.4375 33.7838 21.9531C33.7838 22.4453 33.8423 22.9141 33.9595 23.3594C34.0767 23.8047 34.2759 24.2266 34.5572 24.625C34.8384 25.0234 35.2486 25.4102 35.7877 25.7852C36.1861 26.0664 36.6783 26.1367 37.2642 25.9961C37.8502 25.8555 38.4478 25.6094 39.0572 25.2578C39.6666 24.9062 40.2642 24.5078 40.8502 24.0625C41.4361 23.6172 41.94 23.2422 42.3619 22.9375C42.7838 22.6094 43.0884 22.3984 43.2759 22.3047C43.4634 22.2109 43.4634 22.3516 43.2759 22.7266C42.9478 23.5 42.5611 24.2734 42.1158 25.0469C41.6705 25.8203 41.1431 26.4766 40.5338 27.0156C39.9244 27.5547 39.2213 27.9062 38.4244 28.0703C37.6509 28.2578 36.772 28.1406 35.7877 27.7188ZM34.6627 14.957C34.6392 15.0742 34.5923 15.3086 34.522 15.6602C34.4517 16.0117 34.4166 16.2461 34.4166 16.3633C34.44 16.3867 34.4752 16.3984 34.522 16.3984C34.5923 16.3984 34.6392 16.3867 34.6627 16.3633C34.733 16.3164 34.8384 16.2461 34.9791 16.1523C35.1197 16.0352 35.2603 15.9297 35.4009 15.8359C35.5416 15.7188 35.6705 15.6133 35.7877 15.5195C35.9283 15.4023 36.022 15.3203 36.0689 15.2734C36.772 14.5703 37.2642 13.9258 37.5455 13.3398C37.8502 12.7305 38.0025 12.2383 38.0025 11.8633C38.0025 11.4883 37.8736 11.2422 37.6158 11.125C37.3814 10.9844 37.0884 11.0195 36.7369 11.2305C36.4088 11.4414 36.0572 11.8516 35.6822 12.4609C35.3072 13.0469 34.9673 13.8789 34.6627 14.957ZM47.4581 27.4727C47.3644 27.0977 47.2941 26.582 47.2472 25.9258C47.2003 25.2695 47.1769 24.543 47.1769 23.7461C47.1769 22.9258 47.1769 22.0703 47.1769 21.1797C47.2003 20.2891 47.2238 19.4219 47.2472 18.5781C47.2706 17.7344 47.2706 16.9492 47.2472 16.2227C47.2472 15.4961 47.2238 14.8984 47.1769 14.4297C47.1534 14.0781 47.1183 13.5625 47.0714 12.8828C47.048 12.1797 47.0128 11.3945 46.9659 10.5273C46.9191 9.66016 46.8605 8.74609 46.7902 7.78516C46.7433 6.82422 46.7081 5.91016 46.6847 5.04297C46.6613 4.15234 46.6495 3.34375 46.6495 2.61719C46.6495 1.86719 46.673 1.29297 46.7198 0.894531C47.0714 0.589844 47.3527 0.671875 47.5636 1.14062C47.798 1.58594 47.9738 2.24219 48.0909 3.10938C48.2081 3.95312 48.2784 4.91406 48.3019 5.99219C48.3488 7.07031 48.3722 8.08984 48.3722 9.05078C48.3722 10.0117 48.3605 10.8203 48.337 11.4766C48.3136 12.1328 48.3019 12.4727 48.3019 12.4961C48.4191 14.6992 48.4894 16.8789 48.5128 19.0352C48.5597 21.168 48.6769 23.3242 48.8644 25.5039C49.0988 25.9492 49.2159 26.4297 49.2159 26.9453C49.2394 27.4375 49.1691 27.8359 49.005 28.1406C48.8644 28.4453 48.6534 28.5742 48.3722 28.5273C48.0909 28.4805 47.7863 28.1289 47.4581 27.4727ZM63.0661 27.1562C62.1755 26.0078 61.3434 24.8125 60.57 23.5703C59.82 22.3047 59.0466 21.0625 58.2497 19.8438C57.4528 18.6016 56.5973 17.418 55.6833 16.293C54.7692 15.168 53.7145 14.1719 52.5192 13.3047C51.9802 12.9297 51.7106 12.625 51.7106 12.3906C51.7341 12.1328 51.8981 11.9688 52.2028 11.8984C52.5309 11.8047 52.9294 11.8047 53.3981 11.8984C53.8903 11.9922 54.3356 12.1914 54.7341 12.4961C55.4372 13.3398 56.1872 14.3125 56.9841 15.4141C57.7809 16.4922 58.5544 17.5938 59.3044 18.7188C60.0778 19.8203 60.8044 20.8984 61.4841 21.9531C62.1872 23.0078 62.7966 23.9219 63.3122 24.6953C63.3591 24.7891 63.4294 24.8711 63.5231 24.9414C63.6403 24.9883 63.7575 24.9883 63.8747 24.9414C64.0622 24.6133 64.2614 24.0156 64.4723 23.1484C64.6833 22.2578 64.8942 21.25 65.1052 20.125C65.3395 19 65.5739 17.8398 65.8083 16.6445C66.0661 15.4492 66.3356 14.3711 66.6169 13.4102C66.9216 12.4492 67.2262 11.6992 67.5309 11.1602C67.8591 10.5977 68.2106 10.3867 68.5856 10.5273C68.6794 10.5742 68.8669 10.6797 69.1481 10.8438C69.4294 10.9844 69.6052 11.0781 69.6755 11.125C69.9098 11.2656 69.9919 11.4414 69.9216 11.6523C69.8512 11.8398 69.7223 12.0508 69.5348 12.2852C69.3473 12.4961 69.1481 12.7188 68.9372 12.9531C68.7262 13.1875 68.6091 13.3984 68.5856 13.5859C68.5622 13.7031 68.5153 13.9492 68.445 14.3242C68.3747 14.6992 68.2927 15.1328 68.1989 15.625C68.1052 16.1172 67.9997 16.6445 67.8825 17.207C67.7887 17.7695 67.695 18.2969 67.6012 18.7891C67.5075 19.2812 67.4137 19.7148 67.32 20.0898C67.2497 20.4414 67.2028 20.6758 67.1794 20.793C67.1794 20.8633 67.1325 21.0742 67.0387 21.4258C66.945 21.7539 66.8395 22.1406 66.7223 22.5859C66.6052 23.0312 66.488 23.4766 66.3708 23.9219C66.2536 24.3672 66.1598 24.707 66.0895 24.9414C65.9723 25.3398 65.82 25.7734 65.6325 26.2422C65.4684 26.7109 65.2575 27.0977 64.9997 27.4023C64.7419 27.707 64.4489 27.8711 64.1208 27.8945C63.8161 27.918 63.4645 27.6719 63.0661 27.1562ZM81.6272 49.5859C80.8303 49.1875 80.2795 48.3672 79.9748 47.125C79.6936 45.8828 79.5998 44.4297 79.6936 42.7656C79.7873 41.1016 80.0452 39.3438 80.467 37.4922C80.9123 35.6406 81.4748 33.9062 82.1545 32.2891C82.8577 30.6719 83.6545 29.2891 84.5452 28.1406C85.4592 27.0156 86.4319 26.3242 87.4631 26.0664C87.4866 25.9258 87.51 25.7031 87.5334 25.3984C87.5569 25.0703 87.5803 24.7305 87.6038 24.3789C87.6272 24.0273 87.6506 23.6992 87.6741 23.3945C87.6975 23.0664 87.7092 22.832 87.7092 22.6914C87.7327 22.1758 87.7444 21.5195 87.7444 20.7227C87.7444 19.9023 87.7444 19.1172 87.7444 18.3672C87.7444 17.5938 87.7444 16.9375 87.7444 16.3984C87.7444 15.8359 87.7327 15.543 87.7092 15.5195L87.4631 15.2734C87.2756 15.6016 86.9006 16.1641 86.3381 16.9609C85.7756 17.7578 85.1077 18.625 84.3342 19.5625C83.5608 20.5 82.7053 21.4375 81.7678 22.375C80.8303 23.2891 79.8811 24.0508 78.9202 24.6602C77.9592 25.2461 77.0217 25.5859 76.1077 25.6797C75.1936 25.75 74.3616 25.4102 73.6116 24.6602C73.2366 24.3086 72.9788 23.7695 72.8381 23.043C72.7209 22.293 72.6623 21.4727 72.6623 20.582C72.6858 19.668 72.7561 18.7188 72.8733 17.7344C73.0139 16.7266 73.1663 15.7773 73.3303 14.8867C73.4944 13.9727 73.6467 13.1641 73.7873 12.4609C73.9514 11.7344 74.0686 11.1953 74.1389 10.8438C74.2561 10.5625 74.4319 10.3867 74.6663 10.3164C74.9241 10.2227 75.1702 10.2109 75.4045 10.2812C75.6389 10.3281 75.8264 10.457 75.967 10.668C76.1311 10.8555 76.178 11.0898 76.1077 11.3711C75.8498 12.3555 75.6155 13.3047 75.4045 14.2188C75.217 15.1328 75.053 16.0469 74.9123 16.9609C74.7952 17.875 74.7131 18.8008 74.6663 19.7383C74.6428 20.6758 74.6663 21.6602 74.7366 22.6914C75.2053 23.3242 75.7795 23.6055 76.4592 23.5352C77.1389 23.4414 77.8655 23.1484 78.6389 22.6562C79.4123 22.1406 80.1975 21.4727 80.9944 20.6523C81.7913 19.832 82.5295 19 83.2092 18.1562C83.8889 17.3125 84.4748 16.5273 84.967 15.8008C85.4827 15.0508 85.8459 14.5 86.0569 14.1484C86.2678 13.7969 86.4319 13.3984 86.5491 12.9531C86.6897 12.5078 86.8303 12.0742 86.9709 11.6523C87.135 11.207 87.3108 10.7852 87.4983 10.3867C87.7092 9.98828 87.9788 9.67187 88.3069 9.4375L89.3967 10.5273V24.9414C89.5139 24.9648 89.7834 24.9531 90.2053 24.9062C90.6506 24.8594 91.0373 24.8359 91.3655 24.8359C91.6936 24.8359 91.8811 24.9062 91.928 25.0469C91.9983 25.1641 91.717 25.4102 91.0842 25.7852C90.7561 25.9727 90.428 26.1719 90.0998 26.3828C89.7952 26.5703 89.467 26.7344 89.1155 26.875C88.9045 28.8672 88.7053 30.6133 88.5178 32.1133C88.3303 33.6367 88.1194 35.0898 87.885 36.4727C87.6506 37.8555 87.3694 39.2734 87.0413 40.7266C86.7131 42.1797 86.303 43.8438 85.8108 45.7188C85.6233 46.1406 85.4123 46.6328 85.178 47.1953C84.967 47.7812 84.6975 48.2969 84.3694 48.7422C84.0647 49.2109 83.6897 49.5391 83.2444 49.7266C82.7991 49.9375 82.26 49.8906 81.6272 49.5859ZM82.7522 47.3711C82.9866 47.5352 83.2678 47.2305 83.5959 46.457C83.9241 45.6836 84.2522 44.6406 84.5803 43.3281C84.9319 42.0391 85.26 40.5977 85.5647 39.0039C85.8928 37.4102 86.1741 35.875 86.4084 34.3984C86.6663 32.9219 86.8655 31.6211 87.0061 30.4961C87.1467 29.3711 87.2053 28.6211 87.1819 28.2461C86.1272 29.1602 85.2014 30.2148 84.4045 31.4102C83.6077 32.6289 82.9514 33.918 82.4358 35.2773C81.9436 36.6602 81.6038 38.0664 81.4163 39.4961C81.2288 40.9492 81.2053 42.3789 81.3459 43.7852C81.3694 43.9961 81.4045 44.2656 81.4514 44.5938C81.5217 44.9453 81.5803 45.2852 81.6272 45.6133C81.6975 45.9414 81.7561 46.2227 81.803 46.457C81.8498 46.6914 81.885 46.8203 81.9084 46.8438L82.7522 47.3711ZM95.0203 27.7188C94.9734 27.6719 94.9148 27.5781 94.8445 27.4375C94.7742 27.2969 94.7273 27.2031 94.7039 27.1562C94.7742 26.8516 94.8445 26.1719 94.9148 25.1172C95.0086 24.0391 95.1023 22.7969 95.1961 21.3906C95.3133 19.9844 95.4422 18.5195 95.5828 16.9961C95.7469 15.4727 95.9227 14.1133 96.1102 12.918C96.2977 11.7227 96.5203 10.8086 96.7781 10.1758C97.0359 9.51953 97.3289 9.35547 97.657 9.68359C98.3602 10.1992 99.0164 10.8555 99.6258 11.6523C100.235 12.4258 100.821 13.2695 101.384 14.1836C101.946 15.0977 102.485 16.0469 103.001 17.0312C103.54 17.9922 104.091 18.918 104.653 19.8086C105.239 20.6758 105.848 21.4727 106.481 22.1992C107.137 22.9023 107.841 23.4531 108.591 23.8516H108.837C108.884 23.2891 108.93 22.5977 108.977 21.7773C109.048 20.9336 109.118 20.0195 109.188 19.0352C109.259 18.0508 109.329 17.043 109.399 16.0117C109.47 14.957 109.552 13.9375 109.645 12.9531C109.762 11.9453 109.88 11.0195 109.997 10.1758C110.114 9.33203 110.243 8.61719 110.384 8.03125C110.407 7.98437 110.454 7.89062 110.524 7.75C110.618 7.58594 110.712 7.43359 110.805 7.29297C110.923 7.12891 111.04 7 111.157 6.90625C111.274 6.8125 111.391 6.8125 111.509 6.90625L113.161 8.59375C113.231 8.66406 113.184 8.81641 113.02 9.05078C112.88 9.26172 112.704 9.50781 112.493 9.78906C112.282 10.0469 112.071 10.3047 111.86 10.5625C111.649 10.7969 111.532 10.9727 111.509 11.0898C111.345 11.6992 111.204 12.4375 111.087 13.3047C110.97 14.1484 110.876 15.0625 110.805 16.0469C110.735 17.0078 110.677 18.0039 110.63 19.0352C110.583 20.0664 110.536 21.0742 110.489 22.0586C110.466 23.0195 110.442 23.9336 110.419 24.8008C110.419 25.668 110.407 26.418 110.384 27.0508C109.54 27.0273 108.731 26.7695 107.958 26.2773C107.184 25.7852 106.434 25.1406 105.708 24.3438C105.005 23.5234 104.313 22.6094 103.634 21.6016C102.977 20.5703 102.333 19.5391 101.7 18.5078C101.091 17.4531 100.493 16.4219 99.907 15.4141C99.3211 14.4062 98.7586 13.5156 98.2195 12.7422H97.9031C97.8094 12.7422 97.7273 13 97.657 13.5156C97.6102 14.0078 97.5633 14.6523 97.5164 15.4492C97.4695 16.2461 97.4227 17.1602 97.3758 18.1914C97.3289 19.1992 97.2586 20.2188 97.1648 21.25C97.0945 22.2578 97.0008 23.2305 96.8836 24.168C96.7664 25.082 96.6258 25.8555 96.4617 26.4883C96.2977 27.1211 96.0984 27.5664 95.8641 27.8242C95.6297 28.082 95.3484 28.0469 95.0203 27.7188ZM136.361 27.7188C135.916 27.5547 135.635 27.3672 135.518 27.1562C135.4 26.9453 135.4 26.582 135.518 26.0664C135.869 24.3789 136.244 22.7266 136.643 21.1094C137.041 19.4688 137.393 17.8398 137.697 16.2227C138.025 14.6055 138.271 12.9648 138.435 11.3008C138.623 9.63672 138.67 7.90234 138.576 6.09766C138.787 5.69922 138.998 5.55859 139.209 5.67578C139.42 5.79297 139.596 6.02734 139.736 6.37891C139.9 6.70703 140.029 7.08203 140.123 7.50391C140.217 7.90234 140.264 8.18359 140.264 8.34766C140.123 9.73047 139.982 11.0898 139.842 12.4258C139.701 13.7383 139.537 15.0508 139.35 16.3633C139.185 17.6758 138.998 19 138.787 20.3359C138.576 21.6484 138.318 23.0078 138.014 24.4141C137.873 25.1172 138.084 25.6211 138.646 25.9258C139.209 26.207 139.889 26.3828 140.685 26.4531C141.506 26.5234 142.326 26.5352 143.146 26.4883C143.967 26.418 144.576 26.3711 144.975 26.3477C145.185 26.3242 145.572 26.2891 146.135 26.2422C146.721 26.1953 147.33 26.1484 147.963 26.1016C148.619 26.0312 149.24 25.9727 149.826 25.9258C150.412 25.8789 150.822 25.832 151.057 25.7852C151.268 25.5508 151.619 25.375 152.111 25.2578C152.627 25.1406 153.166 25.0352 153.728 24.9414C154.314 24.8477 154.889 24.7422 155.451 24.625C156.037 24.5078 156.506 24.332 156.857 24.0977C157.045 23.9805 157.291 23.8398 157.596 23.6758C157.924 23.5117 158.228 23.4766 158.51 23.5703V24.4141C158.416 24.5078 158.205 24.6953 157.877 24.9766C157.549 25.2578 157.185 25.5859 156.787 25.9609C156.389 26.3125 155.99 26.6758 155.592 27.0508C155.193 27.4258 154.877 27.7422 154.643 28C154.643 27.9531 154.607 27.8945 154.537 27.8242C154.467 27.7539 154.408 27.7188 154.361 27.7188C153.143 27.5547 151.76 27.4844 150.213 27.5078C148.666 27.5078 147.107 27.5547 145.537 27.6484C143.967 27.7188 142.443 27.8008 140.967 27.8945C139.514 27.9883 138.248 28.0234 137.17 28C137.1 27.9766 136.959 27.9414 136.748 27.8945C136.537 27.8242 136.408 27.7656 136.361 27.7188ZM165.118 26.875C165.047 26.7578 164.942 26.5234 164.801 26.1719C164.661 25.7969 164.532 25.3984 164.415 24.9766C164.321 24.5547 164.262 24.1445 164.239 23.7461C164.239 23.3242 164.356 22.9844 164.59 22.7266C165.504 22.8438 166.196 23.1016 166.665 23.5C167.133 23.8984 167.426 24.3438 167.543 24.8359C167.684 25.3281 167.684 25.8203 167.543 26.3125C167.403 26.7812 167.192 27.1562 166.911 27.4375C166.653 27.6953 166.36 27.8125 166.032 27.7891C165.704 27.7422 165.399 27.4375 165.118 26.875ZM219.748 27.7188C219.701 27.6719 219.607 27.5781 219.466 27.4375C219.326 27.2969 219.232 27.2031 219.185 27.1562C219.091 26.5 219.068 25.7148 219.115 24.8008C219.162 23.8867 219.232 22.9023 219.326 21.8477C219.443 20.793 219.572 19.7031 219.712 18.5781C219.853 17.4531 219.982 16.3633 220.099 15.3086C220.216 14.2539 220.298 13.2578 220.345 12.3203C220.392 11.3828 220.38 10.5742 220.31 9.89453C220.193 8.83984 219.888 7.94922 219.396 7.22266C218.927 6.49609 218.341 5.94531 217.638 5.57031C216.935 5.17187 216.162 4.92578 215.318 4.83203C214.474 4.73828 213.619 4.79688 212.752 5.00781C211.908 5.19531 211.099 5.52344 210.326 5.99219C209.576 6.4375 208.931 7 208.392 7.67969C207.9 8.3125 207.478 9.09766 207.127 10.0352C206.775 10.9492 206.459 11.9453 206.177 13.0234C205.92 14.0781 205.697 15.1914 205.509 16.3633C205.322 17.5117 205.134 18.6484 204.947 19.7734C204.783 20.875 204.619 21.9297 204.455 22.9375C204.314 23.9219 204.15 24.7773 203.962 25.5039C203.962 25.5508 203.927 25.6094 203.857 25.6797C203.787 25.75 203.74 25.7852 203.716 25.7852C203.646 25.7852 203.541 25.7969 203.4 25.8203C203.283 25.8203 203.142 25.8203 202.978 25.8203C202.837 25.8203 202.697 25.8203 202.556 25.8203C202.439 25.7969 202.357 25.7852 202.31 25.7852C202.17 25.668 202.087 25.2578 202.064 24.5547C202.041 23.8281 202.052 22.9609 202.099 21.9531C202.146 20.9219 202.205 19.8203 202.275 18.6484C202.369 17.4766 202.462 16.3633 202.556 15.3086C202.65 14.2539 202.72 13.3398 202.767 12.5664C202.837 11.7695 202.873 11.2539 202.873 11.0195C202.779 9.19141 202.416 7.73828 201.783 6.66016C201.173 5.55859 200.447 4.91406 199.603 4.72656C198.759 4.51562 197.88 4.78516 196.966 5.53516C196.052 6.28516 195.255 7.5625 194.576 9.36719C194.318 10 194.119 10.8555 193.978 11.9336C193.837 12.9883 193.709 14.1367 193.591 15.3789C193.498 16.5977 193.416 17.8516 193.345 19.1406C193.275 20.4297 193.158 21.6484 192.994 22.7969C192.853 23.9219 192.666 24.9062 192.431 25.75C192.197 26.5703 191.88 27.1445 191.482 27.4727C191.201 27.2617 190.978 27.0039 190.814 26.6992C190.65 26.3945 190.509 26.0898 190.392 25.7852V25.5039C190.556 24.2617 190.697 22.7734 190.814 21.0391C190.955 19.2812 191.048 17.4883 191.095 15.6602C191.166 13.8086 191.189 12.0156 191.166 10.2812C191.142 8.52344 191.072 7.01172 190.955 5.74609C190.931 5.44141 190.802 5.04297 190.568 4.55078C190.357 4.03516 190.17 3.53125 190.005 3.03906C189.865 2.52344 189.818 2.04297 189.865 1.59766C189.912 1.12891 190.181 0.765625 190.673 0.507812C190.791 0.4375 190.884 0.4375 190.955 0.507812L192.326 1.87891C192.279 2.32422 192.267 2.83984 192.291 3.42578C192.337 3.98828 192.384 4.57422 192.431 5.18359C192.502 5.76953 192.572 6.35547 192.642 6.94141C192.736 7.52734 192.818 8.05469 192.888 8.52344C193.826 6.15625 194.869 4.5625 196.017 3.74219C197.189 2.92187 198.326 2.69922 199.427 3.07422C200.529 3.42578 201.537 4.28125 202.451 5.64062C203.388 7 204.08 8.6875 204.525 10.7031C204.97 10.4688 205.369 10.0586 205.72 9.47266C206.072 8.86328 206.447 8.20703 206.845 7.50391C207.267 6.80078 207.724 6.12109 208.216 5.46484C208.732 4.78516 209.353 4.23438 210.08 3.8125C211.298 3.10938 212.529 2.78125 213.771 2.82812C215.037 2.85156 216.209 3.15625 217.287 3.74219C218.365 4.30469 219.291 5.10156 220.064 6.13281C220.861 7.16406 221.412 8.32422 221.716 9.61328C221.834 10.1523 221.916 10.832 221.962 11.6523C222.009 12.4727 222.033 13.3633 222.033 14.3242C222.033 15.2852 221.998 16.2812 221.927 17.3125C221.88 18.3438 221.81 19.3398 221.716 20.3008C221.646 21.2383 221.552 22.1172 221.435 22.9375C221.341 23.7578 221.236 24.4258 221.119 24.9414C221.236 25.0117 221.353 25.0117 221.47 24.9414C221.587 24.8711 221.705 24.7891 221.822 24.6953C221.939 24.5781 222.068 24.4844 222.209 24.4141C222.373 24.3203 222.56 24.3203 222.771 24.4141C222.865 24.7188 222.83 25.1172 222.666 25.6094C222.502 26.1016 222.267 26.5586 221.962 26.9805C221.658 27.3789 221.306 27.6719 220.908 27.8594C220.509 28.0469 220.123 28 219.748 27.7188ZM227.445 26.6992C226.977 26.2305 226.602 25.5156 226.32 24.5547C226.039 23.5938 225.84 22.5039 225.723 21.2852C225.629 20.0664 225.617 18.7773 225.688 17.418C225.758 16.0352 225.91 14.6992 226.145 13.4102C226.402 12.0977 226.731 10.8789 227.129 9.75391C227.551 8.62891 228.055 7.70312 228.641 6.97656C229.25 6.22656 229.93 5.74609 230.68 5.53516C231.453 5.30078 232.309 5.42969 233.246 5.92188C233.574 6.10938 233.914 6.42578 234.266 6.87109C234.641 7.31641 234.992 7.82031 235.32 8.38281C235.649 8.92188 235.93 9.47266 236.164 10.0352C236.422 10.5742 236.61 11.0312 236.727 11.4062C236.75 11.5234 236.75 11.8867 236.727 12.4961C236.727 13.082 236.715 13.7969 236.692 14.6406C236.668 15.4844 236.668 16.4219 236.692 17.4531C236.738 18.4609 236.82 19.457 236.938 20.4414C237.078 21.4023 237.289 22.3047 237.57 23.1484C237.852 23.9688 238.227 24.625 238.695 25.1172C239.164 25.5859 239.75 25.8438 240.453 25.8906C241.18 25.9141 242.059 25.6211 243.09 25.0117C243.465 24.6836 243.688 24.3672 243.758 24.0625C243.828 23.7344 243.863 23.4648 243.863 23.2539C243.863 23.0195 243.887 22.8672 243.934 22.7969C243.981 22.7266 244.192 22.7852 244.567 22.9727C245.035 23.582 245.188 24.2383 245.024 24.9414C244.883 25.6211 244.543 26.2305 244.004 26.7695C243.488 27.2852 242.832 27.6602 242.035 27.8945C241.238 28.1055 240.418 28.0469 239.574 27.7188C238.754 27.3906 237.969 26.7227 237.219 25.7148C236.469 24.707 235.871 23.2422 235.426 21.3203C235.285 21.7188 235.063 22.2109 234.758 22.7969C234.477 23.3828 234.137 23.9688 233.738 24.5547C233.34 25.1406 232.883 25.6914 232.367 26.207C231.875 26.7227 231.36 27.1094 230.82 27.3672C230.281 27.625 229.719 27.7305 229.133 27.6836C228.57 27.6133 228.008 27.2852 227.445 26.6992ZM227.762 24.4844C228.16 25.3281 228.629 25.7852 229.168 25.8555C229.707 25.9258 230.258 25.7148 230.82 25.2227C231.383 24.7305 231.934 24.0156 232.473 23.0781C233.035 22.1406 233.504 21.0859 233.879 19.9141C234.277 18.7188 234.57 17.4766 234.758 16.1875C234.969 14.875 235.004 13.6211 234.863 12.4258C234.746 11.2305 234.442 10.1406 233.949 9.15625C233.457 8.17188 232.707 7.39844 231.699 6.83594C231.676 6.8125 231.629 6.80078 231.559 6.80078C231.512 6.80078 231.465 6.80078 231.418 6.80078C230.692 7.12891 230.059 7.69141 229.52 8.48828C228.981 9.28516 228.512 10.2227 228.113 11.3008C227.738 12.3789 227.445 13.5391 227.235 14.7812C227.024 16.0234 226.906 17.2422 226.883 18.4375C226.86 19.6328 226.918 20.7695 227.059 21.8477C227.199 22.9023 227.434 23.7812 227.762 24.4844ZM257.292 27.0508C256.354 26.5117 255.616 25.9727 255.077 25.4336C254.561 24.8711 254.069 24.332 253.6 23.8164C253.132 23.2773 252.592 22.7734 251.983 22.3047C251.374 21.8125 250.53 21.3789 249.452 21.0039C249.288 21.4727 249.159 22.0234 249.065 22.6562C248.971 23.2891 248.889 23.9336 248.819 24.5898C248.772 25.2227 248.725 25.832 248.678 26.418C248.655 26.9805 248.62 27.4141 248.573 27.7188C248.268 28.0938 247.975 28.2578 247.694 28.2109C247.413 28.1641 247.155 28.0234 246.921 27.7891C246.71 27.5312 246.522 27.2383 246.358 26.9102C246.217 26.5586 246.135 26.2891 246.112 26.1016C246.651 24.8359 247.014 23.5586 247.202 22.2695C247.413 20.9805 247.507 19.6562 247.483 18.2969C247.483 16.9375 247.413 15.5312 247.272 14.0781C247.132 12.625 247.014 11.1016 246.921 9.50781C247.038 9.32031 247.19 9.16797 247.378 9.05078C247.589 8.93359 247.811 8.92188 248.046 9.01562C248.35 8.66406 248.749 8.27734 249.241 7.85547C249.733 7.41016 250.26 7.01172 250.823 6.66016C251.409 6.28516 252.007 5.98047 252.616 5.74609C253.249 5.51172 253.835 5.41797 254.374 5.46484C254.913 5.48828 255.382 5.6875 255.78 6.0625C256.202 6.4375 256.507 7.04688 256.694 7.89062C256.882 9.10937 256.846 10.2461 256.589 11.3008C256.331 12.3555 255.909 13.3633 255.323 14.3242C254.76 15.2617 254.046 16.1523 253.178 16.9961C252.311 17.8164 251.35 18.6133 250.296 19.3867C250.225 19.5273 250.249 19.668 250.366 19.8086C250.507 19.9258 250.671 20.043 250.858 20.1602C251.069 20.2539 251.28 20.3359 251.491 20.4062C251.702 20.4766 251.854 20.5234 251.948 20.5469C252.417 20.875 252.932 21.3203 253.495 21.8828C254.057 22.4219 254.643 22.9844 255.253 23.5703C255.885 24.1328 256.518 24.6484 257.151 25.1172C257.807 25.5859 258.452 25.8906 259.085 26.0312C259.717 26.1484 260.327 26.0547 260.913 25.75C261.522 25.4453 262.096 24.8008 262.635 23.8164H263.198C263.292 24.5195 263.175 25.1758 262.846 25.7852C262.542 26.3711 262.096 26.8281 261.51 27.1562C260.948 27.4844 260.292 27.6602 259.542 27.6836C258.792 27.707 258.042 27.4961 257.292 27.0508ZM249.171 15.4844C249.194 15.5781 249.217 15.7539 249.241 16.0117C249.264 16.2461 249.288 16.5039 249.311 16.7852C249.358 17.043 249.393 17.2891 249.417 17.5234C249.44 17.7578 249.452 17.9219 249.452 18.0156C250.46 17.6172 251.339 16.9961 252.089 16.1523C252.839 15.3086 253.448 14.4062 253.917 13.4453C254.385 12.4609 254.69 11.4883 254.831 10.5273C254.995 9.54297 254.995 8.73438 254.831 8.10156C254.667 7.46875 254.315 7.08203 253.776 6.94141C253.26 6.77734 252.557 7.01172 251.667 7.64453C250.823 8.25391 250.202 8.85156 249.803 9.4375C249.428 10 249.171 10.5977 249.03 11.2305C248.913 11.8398 248.889 12.4961 248.96 13.1992C249.03 13.8789 249.1 14.6406 249.171 15.4844ZM268.189 27.7188C268.189 27.2734 268.2 26.6758 268.224 25.9258C268.271 25.1758 268.306 24.3555 268.329 23.4648C268.353 22.5742 268.365 21.6602 268.365 20.7227C268.365 19.7852 268.341 18.9062 268.294 18.0859C268.247 17.2656 268.165 16.5508 268.048 15.9414C267.954 15.332 267.814 14.9219 267.626 14.7109C266.15 14.8281 265.025 14.8164 264.251 14.6758C263.478 14.5352 263.079 14.3477 263.056 14.1133C263.056 13.8789 263.454 13.6328 264.251 13.375C265.048 13.0938 266.279 12.8945 267.943 12.7773C267.943 12.4961 267.943 12.0039 267.943 11.3008C267.966 10.5742 267.978 9.8125 267.978 9.01562C267.978 8.21875 267.966 7.46875 267.943 6.76562C267.943 6.0625 267.943 5.57031 267.943 5.28906C267.919 5.125 267.884 4.90234 267.837 4.62109C267.79 4.33984 267.743 4.04687 267.697 3.74219C267.65 3.41406 267.615 3.09766 267.591 2.79297C267.568 2.46484 267.579 2.19531 267.626 1.98438C267.673 1.70312 267.79 1.51562 267.978 1.42188C268.189 1.30469 268.4 1.25781 268.611 1.28125C268.822 1.28125 269.009 1.35156 269.173 1.49219C269.361 1.60938 269.454 1.77344 269.454 1.98438V12.4961C269.454 12.7305 269.747 12.8477 270.333 12.8477C270.919 12.8242 271.634 12.7656 272.478 12.6719C273.322 12.5781 274.2 12.4844 275.115 12.3906C276.052 12.2734 276.849 12.2383 277.505 12.2852C278.185 12.332 278.642 12.4961 278.876 12.7773C279.111 13.0352 278.97 13.4922 278.454 14.1484C278.408 14.1953 278.314 14.2539 278.173 14.3242C278.033 14.3945 277.939 14.4297 277.892 14.4297C276.626 14.3828 275.29 14.3711 273.884 14.3945C272.478 14.418 271.142 14.5234 269.876 14.7109C269.454 14.7812 269.22 15.1797 269.173 15.9062C269.15 16.6094 269.208 17.4766 269.349 18.5078C269.513 19.5391 269.689 20.6406 269.876 21.8125C270.087 22.9609 270.216 24.0156 270.263 24.9766C270.31 25.9375 270.204 26.7227 269.947 27.332C269.712 27.918 269.22 28.1406 268.47 28C268.423 28 268.365 27.9648 268.294 27.8945C268.224 27.8242 268.189 27.7656 268.189 27.7188ZM281.582 27.1562C281.535 27.0156 281.5 26.5469 281.476 25.75C281.453 24.9297 281.43 23.9453 281.406 22.7969C281.406 21.6484 281.418 20.4062 281.441 19.0703C281.465 17.7109 281.488 16.4453 281.512 15.2734C281.558 14.0781 281.605 13.0469 281.652 12.1797C281.723 11.3125 281.793 10.7617 281.863 10.5273C282.004 10.457 282.156 10.457 282.32 10.5273C282.484 10.5977 282.625 10.6914 282.742 10.8086C282.883 10.9258 283 11.0664 283.094 11.2305C283.187 11.3945 283.234 11.5352 283.234 11.6523V27.1562C283.234 27.4141 283.164 27.6133 283.023 27.7539C282.883 27.8711 282.707 27.9297 282.496 27.9297C282.308 27.9297 282.121 27.8711 281.933 27.7539C281.769 27.6133 281.652 27.4141 281.582 27.1562ZM281.863 5.04297C281.84 4.97266 281.816 4.87891 281.793 4.76172C281.793 4.62109 281.793 4.48047 281.793 4.33984C281.793 4.17578 281.793 4.03516 281.793 3.91797C281.816 3.77734 281.84 3.68359 281.863 3.63672C282.051 3.54297 282.262 3.46094 282.496 3.39062C282.73 3.32031 282.976 3.30859 283.234 3.35547C283.633 3.87109 283.879 4.29297 283.973 4.62109C284.09 4.92578 284.101 5.17187 284.008 5.35938C283.914 5.52344 283.75 5.62891 283.515 5.67578C283.305 5.69922 283.082 5.6875 282.848 5.64062C282.613 5.59375 282.39 5.52344 282.18 5.42969C281.992 5.3125 281.887 5.18359 281.863 5.04297ZM286.924 27.7188C286.877 27.6719 286.819 27.5781 286.748 27.4375C286.678 27.2969 286.631 27.2031 286.608 27.1562C286.678 26.8516 286.748 26.1719 286.819 25.1172C286.913 24.0391 287.006 22.7969 287.1 21.3906C287.217 19.9844 287.346 18.5195 287.487 16.9961C287.651 15.4727 287.827 14.1133 288.014 12.918C288.202 11.7227 288.424 10.8086 288.682 10.1758C288.94 9.51953 289.233 9.35547 289.561 9.68359C290.264 10.1992 290.92 10.8555 291.53 11.6523C292.139 12.4258 292.725 13.2695 293.288 14.1836C293.85 15.0977 294.389 16.0469 294.905 17.0312C295.444 17.9922 295.995 18.918 296.557 19.8086C297.143 20.6758 297.752 21.4727 298.385 22.1992C299.041 22.9023 299.745 23.4531 300.495 23.8516H300.741C300.788 23.2891 300.834 22.5977 300.881 21.7773C300.952 20.9336 301.022 20.0195 301.092 19.0352C301.163 18.0508 301.233 17.043 301.303 16.0117C301.373 14.957 301.455 13.9375 301.549 12.9531C301.666 11.9453 301.784 11.0195 301.901 10.1758C302.018 9.33203 302.147 8.61719 302.288 8.03125C302.311 7.98437 302.358 7.89062 302.428 7.75C302.522 7.58594 302.616 7.43359 302.709 7.29297C302.827 7.12891 302.944 7 303.061 6.90625C303.178 6.8125 303.295 6.8125 303.413 6.90625L305.065 8.59375C305.135 8.66406 305.088 8.81641 304.924 9.05078C304.784 9.26172 304.608 9.50781 304.397 9.78906C304.186 10.0469 303.975 10.3047 303.764 10.5625C303.553 10.7969 303.436 10.9727 303.413 11.0898C303.248 11.6992 303.108 12.4375 302.991 13.3047C302.873 14.1484 302.78 15.0625 302.709 16.0469C302.639 17.0078 302.58 18.0039 302.534 19.0352C302.487 20.0664 302.44 21.0742 302.393 22.0586C302.37 23.0195 302.346 23.9336 302.323 24.8008C302.323 25.668 302.311 26.418 302.288 27.0508C301.444 27.0273 300.635 26.7695 299.862 26.2773C299.088 25.7852 298.338 25.1406 297.612 24.3438C296.909 23.5234 296.217 22.6094 295.538 21.6016C294.881 20.5703 294.237 19.5391 293.604 18.5078C292.995 17.4531 292.397 16.4219 291.811 15.4141C291.225 14.4062 290.663 13.5156 290.123 12.7422H289.807C289.713 12.7422 289.631 13 289.561 13.5156C289.514 14.0078 289.467 14.6523 289.42 15.4492C289.373 16.2461 289.327 17.1602 289.28 18.1914C289.233 19.1992 289.163 20.2188 289.069 21.25C288.998 22.2578 288.905 23.2305 288.788 24.168C288.67 25.082 288.53 25.8555 288.366 26.4883C288.202 27.1211 288.002 27.5664 287.768 27.8242C287.534 28.082 287.252 28.0469 286.924 27.7188ZM313.642 28.1758C313.431 28.0586 313.138 27.918 312.763 27.7539C312.411 27.5664 312.036 27.3555 311.638 27.1211C311.239 26.8867 310.853 26.6406 310.478 26.3828C310.126 26.1016 309.833 25.8086 309.599 25.5039C309.364 25.1758 309.235 24.8359 309.212 24.4844C309.188 24.1328 309.317 23.7695 309.599 23.3945C309.645 23.3477 309.798 23.4766 310.056 23.7812C310.337 24.0625 310.688 24.4141 311.11 24.8359C311.532 25.2344 312.013 25.6562 312.552 26.1016C313.091 26.5234 313.642 26.8516 314.204 27.0859C314.767 27.2969 315.329 27.3672 315.892 27.2969C316.454 27.2031 316.97 26.8516 317.438 26.2422C317.626 25.9844 317.755 25.6914 317.825 25.3633C317.919 25.0117 317.954 24.6602 317.931 24.3086C317.907 23.957 317.849 23.6172 317.755 23.2891C317.685 22.9375 317.579 22.6211 317.438 22.3398C317.134 21.6836 316.653 21.0156 315.997 20.3359C315.364 19.6562 314.673 18.9648 313.923 18.2617C313.196 17.5586 312.481 16.8438 311.778 16.1172C311.075 15.3906 310.524 14.6523 310.126 13.9023C309.728 13.1523 309.528 12.4023 309.528 11.6523C309.552 10.8789 309.903 10.0938 310.583 9.29688C311.122 8.6875 311.79 8.38281 312.587 8.38281C313.407 8.38281 314.204 8.55859 314.978 8.91016C315.774 9.26172 316.466 9.71875 317.052 10.2812C317.661 10.8203 318.036 11.3477 318.177 11.8633C318.247 12.0742 318.27 12.3086 318.247 12.5664C318.224 12.8008 318.153 13 318.036 13.1641C317.919 13.3281 317.743 13.4453 317.509 13.5156C317.298 13.5625 317.017 13.5156 316.665 13.375C316.267 13.2344 315.95 12.9297 315.716 12.4609C315.505 11.9922 315.27 11.5352 315.013 11.0898C314.778 10.6211 314.462 10.2578 314.063 10C313.688 9.71875 313.126 9.69531 312.376 9.92969C311.532 10.2109 311.075 10.6445 311.005 11.2305C310.935 11.793 311.099 12.4492 311.497 13.1992C311.919 13.9258 312.481 14.6992 313.185 15.5195C313.911 16.3164 314.638 17.0781 315.364 17.8047C316.114 18.5312 316.782 19.1875 317.368 19.7734C317.954 20.3359 318.317 20.7461 318.458 21.0039C318.739 21.543 318.985 22.2227 319.196 23.043C319.431 23.8398 319.513 24.625 319.442 25.3984C319.372 26.1719 319.114 26.8516 318.669 27.4375C318.224 28 317.474 28.3164 316.419 28.3867C316.278 28.4102 316.079 28.4219 315.821 28.4219C315.587 28.4453 315.341 28.457 315.083 28.457C314.825 28.457 314.556 28.4336 314.274 28.3867C314.017 28.3398 313.806 28.2695 313.642 28.1758Z" fill="#484848"/>
</svg>
